<svg width="64" height="64" viewBox="0 0 64 64" fill="#85beba" xmlns="http://www.w3.org/2000/svg">
<path d="M32 0C25.098 0 18.7046 2.16997 13.4693 5.8626H50.5307C45.2954 2.16997 38.902 0 32 0Z" fill="#85beba"/>
<path d="M56.8451 11.7252C58.3265 13.5259 59.6148 15.4906 60.6782 17.5878H3.32184C4.38523 15.4906 5.67346 13.5259 7.15494 11.7252H56.8451Z" fill="#85beba"/>
<path d="M64 29.313C63.8321 27.3001 63.4772 25.3402 62.9527 23.4504H1.04729C0.52281 25.3402 0.167926 27.3001 0 29.313H64Z" fill="#85beba"/>
<path d="M1.18709 41.0382C0.630412 39.1505 0.243691 37.1905 0.044525 35.1756H63.9555C63.7563 37.1905 63.3696 39.1505 62.8129 41.0382H1.18709Z" fill="#85beba"/>
<path d="M3.57487 46.9008C4.68763 49.0044 6.02865 50.9695 7.56506 52.7634H56.4349C57.9714 50.9695 59.3124 49.0044 60.4251 46.9008H3.57487Z" fill="#85beba"/>
<path d="M32 64C38.5918 64 44.7197 62.0208 49.8179 58.626H14.1821C19.2803 62.0208 25.4082 64 32 64Z" fill="#85beba"/>
</svg>
