<svg width="86" height="86" viewBox="0 0 86 86" fill="none" xmlns="http://www.w3.org/2000/svg">
<path opacity="0.7" d="M36.9931 85.9999C29.6766 85.9999 22.5243 83.8272 16.4408 79.7566C10.3574 75.686 5.61587 69.9003 2.81595 63.1312C0.0160286 56.362 -0.716558 48.9135 0.710828 41.7274C2.13821 34.5413 5.66147 27.9404 10.835 22.7595C16.0086 17.5786 22.6002 14.0504 29.7761 12.621C36.9521 11.1916 44.3901 11.9252 51.1497 14.7291C57.9093 17.533 63.6869 22.2812 67.7517 28.3733C71.8166 34.4653 73.9862 41.6277 73.9862 48.9546C73.9752 58.7762 70.0742 68.1925 63.1391 75.1375C56.2039 82.0824 46.8009 85.9889 36.9931 85.9999ZM36.9931 15.4198C30.3688 15.4198 23.8933 17.3869 18.3854 21.0725C12.8776 24.7581 8.58483 29.9965 6.05003 36.1253C3.51523 42.254 2.85225 48.9979 4.14492 55.5041C5.43759 62.0102 8.62786 67.9863 13.3123 72.6767C17.9967 77.3671 23.9648 80.5611 30.4619 81.8547C36.9591 83.1483 43.6934 82.4834 49.8131 79.9442C55.9329 77.405 61.1634 73.1054 64.843 67.5893C68.5226 62.0732 70.4861 55.5882 70.4852 48.9546C70.4754 40.0628 66.9435 31.538 60.6645 25.251C54.3855 18.964 45.8723 15.4283 36.9931 15.4198Z" fill="#ACCE0E"/>
<path d="M40.0477 74.0907C32.7311 74.0907 25.5789 71.9181 19.4954 67.8475C13.4119 63.7769 8.67043 57.9912 5.87051 51.222C3.07059 44.4529 2.33801 37.0043 3.76539 29.8182C5.19278 22.6321 8.71603 16.0312 13.8896 10.8504C19.0632 5.66947 25.6547 2.14124 32.8307 0.711833C40.0066 -0.71757 47.4447 0.0160513 54.2043 2.81993C60.9639 5.6238 66.7414 10.372 70.8063 16.4641C74.8711 22.5562 77.0408 29.7185 77.0408 37.0454C77.0298 46.8671 73.1288 56.2833 66.1936 63.2283C59.2584 70.1732 49.8555 74.0798 40.0477 74.0907ZM40.0477 3.5106C33.4232 3.50968 26.9472 5.47608 21.4387 9.16108C15.9303 12.8461 11.6368 18.0842 9.10132 24.2129C6.56581 30.3416 5.90217 37.0856 7.19432 43.5921C8.48647 50.0985 11.6764 56.0751 16.3606 60.7659C21.0448 65.4567 27.013 68.6512 33.5102 69.9451C40.0075 71.2391 46.742 70.5745 52.8621 68.0355C58.9821 65.4964 64.2128 61.1968 67.8926 55.6806C71.5724 50.1644 73.536 43.6792 73.5351 37.0454C73.5242 28.1548 69.9925 19.6314 63.7148 13.3448C57.437 7.05821 48.9257 3.52157 40.0477 3.5106Z" fill="#E4E300"/>
<path d="M48.1719 83.4201C40.8554 83.4201 33.7032 81.2474 27.6197 77.1768C21.5362 73.1062 16.7947 67.3205 13.9948 60.5514C11.1949 53.7822 10.4623 46.3336 11.8897 39.1475C13.317 31.9614 16.8403 25.3606 22.0139 20.1797C27.1874 14.9988 33.779 11.4706 40.9549 10.0412C48.1309 8.61178 55.569 9.3454 62.3286 12.1493C69.0882 14.9531 74.8657 19.7013 78.9305 25.7934C82.9954 31.8855 85.165 39.0478 85.165 46.3747C85.154 56.1964 81.2531 65.6126 74.3179 72.5576C67.3827 79.5026 57.9797 83.4091 48.1719 83.4201ZM48.1719 12.8399C41.5476 12.8399 35.0721 14.8071 29.5643 18.4927C24.0564 22.1782 19.7637 27.4166 17.2289 33.5454C14.6941 39.6742 14.0311 46.4181 15.3237 52.9242C16.6164 59.4304 19.8067 65.4065 24.4911 70.0969C29.1755 74.7873 35.1436 77.9812 41.6408 79.2748C48.1379 80.5684 54.8722 79.9036 60.992 77.3643C67.1118 74.8251 72.3422 70.5256 76.0218 65.0095C79.7014 59.4933 81.6649 53.0084 81.664 46.3747C81.6542 37.4829 78.1223 28.9582 71.8433 22.6712C65.5643 16.3842 57.0512 12.8485 48.1719 12.8399Z" fill="#469C49"/>
</svg>
